<svg xmlns="http://www.w3.org/2000/svg" width="121" height="103" fill="none"><path fill="#103A54" d="M36.1 81.37c5.95 0 10.77 4.75 10.77 10.6a10.7 10.7 0 0 1-10.77 10.62 10.69 10.69 0 0 1-10.77-10.61A10.7 10.7 0 0 1 36.1 81.37Zm0 13.93a3.34 3.34 0 0 0 3.37-3.32c0-1.83-1.5-3.32-3.37-3.32a3.34 3.34 0 0 0-3.36 3.32c0 1.83 1.5 3.32 3.36 3.32Zm31.8-13.93c5.95 0 10.77 4.75 10.77 10.6a10.7 10.7 0 0 1-10.77 10.62 10.69 10.69 0 0 1-10.77-10.61c0-5.86 4.82-10.61 10.77-10.61Zm0 13.93a3.34 3.34 0 0 0 3.37-3.32 3.35 3.35 0 0 0-3.37-3.32 3.34 3.34 0 0 0-3.37 3.32c0 1.83 1.5 3.32 3.37 3.32Zm-.08-6.64h-37a12.43 12.43 0 0 1-12.53-12.34c0-5.72 3.95-10.53 9.3-11.93l.09-.02-10.45-33.6a6.9 6.9 0 0 0-6.58-4.74H.76v-7.3h9.9c6.36 0 11.74 4.1 13.58 9.75l.03.1v.03l13.27 42.66h-6.73a5.09 5.09 0 0 0-5.12 5.05c0 2.79 2.3 5.05 5.12 5.05h37v7.29Zm9.94-17.39h-45.2v-7.3h39.62l6.15-21.21v-2.8h-52.8v-7.3h60.2v11.12l-7.97 27.49Z"/><ellipse cx="97.19" cy="23.73" fill="#E8CFA3" rx="23.34" ry="23"/><path fill="#103A54" d="M101.37 11.63v22.23c0 1.52.28 2.55.84 3.1.6.55 1.59.82 2.96.82v1.09c-.7-.04-1.74-.07-3.11-.1a70.32 70.32 0 0 0-4.18-.11c-1.8 0-3.54.03-5.23.1l-3.85.1v-1.08c1.58 0 2.8-.27 3.64-.82.88-.59 1.32-1.72 1.32-3.4v-12.6c0-1.64-.14-2.87-.42-3.66-.28-.79-.8-1.3-1.58-1.54s-1.84-.36-3.17-.36v-1.14c3.03-.07 5.53-.3 7.5-.67 2-.38 3.77-1.03 5.28-1.96Z"/></svg>