<svg xmlns="http://www.w3.org/2000/svg" width="270" height="278" fill="none"><circle cx="135" cy="133" r="127" fill="#103A54"/><g filter="url(#a)"><path fill="#E8CFA3" d="M135.08 0C208.5 0 268 59.5 268 132.92c0 73.4-59.5 132.91-132.92 132.91-73.4 0-132.91-59.5-132.91-132.91S61.67 0 135.08 0Zm0 242.72c60.64 0 109.8-49.16 109.8-109.8s-49.16-109.8-109.8-109.8-109.8 49.16-109.8 109.8c.07 60.6 49.2 109.73 109.8 109.8Zm-22.07-49.3-52.33-52.33 16.35-16.34L113 160.72l80.13-80.13 16.34 16.35-96.47 96.47Z"/></g><defs><filter id="a" width="269.83" height="277.83" x=".17" y="0" color-interpolation-filters="sRGB" filterUnits="userSpaceOnUse"><feFlood flood-opacity="0" result="BackgroundImageFix"/><feColorMatrix in="SourceAlpha" result="hardAlpha" values="0 0 0 0 0 0 0 0 0 0 0 0 0 0 0 0 0 0 127 0"/><feMorphology in="SourceAlpha" radius="2" result="effect1_dropShadow_899_1052"/><feOffset dy="10"/><feGaussianBlur stdDeviation="2"/><feComposite in2="hardAlpha" operator="out"/><feColorMatrix values="0 0 0 0 0 0 0 0 0 0 0 0 0 0 0 0 0 0 0.25 0"/><feBlend in2="BackgroundImageFix" result="effect1_dropShadow_899_1052"/><feBlend in="SourceGraphic" in2="effect1_dropShadow_899_1052" result="shape"/></filter></defs></svg>