<svg xmlns="http://www.w3.org/2000/svg" width="185" height="99" fill="none"><g fill="#F7EBDA" clip-path="url(#a)"><path d="M73.23 28.9c.13.2.28.37.45.54 1.37 1.32 3.8 1.39 5.15-.02a3.54 3.54 0 0 0-2.56-6.06c-2.65 0-4.51 3.31-3.04 5.54Z"/><path d="M72.27 74.23a.76.76 0 0 0-1 .36 62 62 0 0 1-2.35 4.73c-.56.98-2.59 4.25-5.56 5.61.54-1.6 1.05-3.22 1.57-4.83.53-1.67 1.07-3.32 1.67-4.96.42-1.13 1.93-3.46 1.5-4.66-.49-1.36-2.76-.87-3.73-.4-2.5 1.25-3.47 4.76-4.6 7.08-.55 1.14-1.07 2.3-1.7 3.39-.4.66-1.53 2.8-2.6 2.25-.59-.3-.63-1.16-.57-1.73.32-2.88 1.61-5.85 2.76-8.5 1.13-2.57-2.73-4.75-3.84-2.19a81.36 81.36 0 0 0-1.56 3.79.74.74 0 0 0-.5.39 97 97 0 0 1-2.17 4.17c-.85 1.54-1.4 2.6-2.84 3.7-1.67 1.28-4.52 1.73-5.27-.53-.58-1.74 2.09-11.49 4.44-18.98 2.47.5 4.9.83 7.47.18 1.3-.33.72-2.36-.55-1.96-2.21.68-4.36.7-6.5.45.5-1.56 1.01-3.11 1.56-4.66.37-1.06.72-2.14 1.28-3.13.49-.84 1.34-1.88 1-2.92 1.14-.16 2.27-.5 3.33-1.01 5.13-2.54 9.45-13.48 11.86-20.75 3.03-9.1 5.68-18.3 8.6-27.42.47-1.47-2.35-2.44-2.9-.99l-.55 1.52c-2.52 6.98-4.58 14.1-6.74 21.18a95.82 95.82 0 0 1-5.62 14.63c-1.8 3.72-4.11 9.28-9.22 8.07-1.52-.36-2.33-1.58-2.62-3.05-1.04-5.33 1.18-11.27 2.44-16.4.6-2.4 2.29-6-.17-7.9-2.46-1.93-4.41.14-5.34 2.4-2.1 5.08-3.98 10.24-6.06 15.32-1.96 4.8-3.87 10.56-7.4 14.5-.49.55-1.28 1.38-2.11 1.33 2.6-3.13 5-6.97 4.99-10.7 0-4-2.92-5.35-6.1-5.42.33-2.66.77-5.3 1.2-7.87.79-4.71 2.34-9.35 2.91-14.08.44-3.63-.44-7.37-3.98-9.13-2.72-1.35-5.91-.32-8.1 1.53-2.68 2.25-4.39 4.44-6.41 7.15-.55.72-1.13 2.26.02 2.78 1.07.47 1.77-.32 2.46-1.23a316 316 0 0 0 1.63-2.14c1.3-1.72 2.82-3.47 4.71-4.56 1.23-.73 2.86-.97 3.34.74.43 1.57-.51 3.86-.94 5.35a131.06 131.06 0 0 0-4.26 23.37C12.77 41.68 8.13 48.5 4.89 54.9A44.75 44.75 0 0 0 .2 70.57c-.48 4.61-.3 10.23 2.4 14.2 3.5 5.13 9.16 4.86 14.02 2.1 4.34-2.47 7.21-5.45 10.08-10.05a35.7 35.7 0 0 0-.58 2.45 7.06 7.06 0 0 0 .64 4.87 4.42 4.42 0 0 0 4.3 1.93c1.86-.27 3.32-1.6 4.51-3.24.64-.89 1.2-1.87 1.7-2.82-.07 2.2.49 4.28 2.64 5.33 5.02 2.47 8.59-1.83 10.91-5.8-.19 2.03.62 4.96 2.64 5.81 2.48 1.05 4.57-1.67 5.8-3.8-.26.77-.52 1.54-.81 2.3L57.28 87c-3.52 1.18-6.9 2.39-8.53 6.22-.87 2.04-.51 4.56 1.72 5.45 1.72.68 3.9.3 5.38-.75 2.65-1.84 4.3-4.98 5.58-7.86l.03-.07a47.8 47.8 0 0 0 1.22-3.07 9 9 0 0 0 1.1-.38c3.49-1.51 5.83-5.37 6.45-6.47a62.4 62.4 0 0 0 2.42-4.84.75.75 0 0 0-.36-1h-.02Zm-42.63-31.1c-.48 2.43-1.79 4.92-3.36 7.13-.04-.24-.06-.47-.08-.66-.35-3.1-.3-6.27-.05-9.44 2.08-.57 4.03.34 3.5 2.97Zm8.65 31.43-.1.4a97.23 97.23 0 0 1-1.98 3.78 27.96 27.96 0 0 1-2.36 3.7c-.7.9-1.84 1.99-3.07 1.5-1-.38-.92-1.81-.83-2.67a20.87 20.87 0 0 1 2.33-7.44c.48-.91 1.58-2.24 1.19-3.34-.27-.74-1.21-.8-1.88-.77a4.2 4.2 0 0 0-1.3.3l.3-.8c.05-.1.08-.2.1-.3 1 .55 2.34.46 3.15-.38a2.52 2.52 0 0 0-1.83-4.3c-1.7 0-2.92 1.88-2.4 3.42a1 1 0 0 0-.5.48C26.16 73.8 21 82.38 13.95 83.45c-3.88.59-6.11-1.95-6.74-5.69-.67-4.02-.17-8.26.9-12.16A47.62 47.62 0 0 1 18.7 46.44c.07 2.96.58 5.95 2.15 8.46 1.77 2.81 5.11 4.15 8.21 2.66 5.18-2.48 7.46-8.96 9.5-13.89l1.14-2.71c.23 1.73.67 3.45 1.37 5.16a7.66 7.66 0 0 0 5.25 4.57c-.74.5-1.3 1.25-1.6 2.2a334.64 334.64 0 0 0-2.51 8.03c-.84-.15-1.68-.31-2.53-.44-1.24-.2-5.6-.72-5.4 1.58 0 .07.05.12.12.12 1.1-.08 2.13-.53 3.26-.56 1.4-.06 2.81.18 4.2.46-1.24 4.15-2.48 8.3-3.57 12.5v-.02Zm17.54 15.99c-.8 1.78-1.47 4.07-3.2 5.22-2.05 1.37-2.74-1-2.02-2.63 1.18-2.67 3.56-3.5 5.98-4.4-.24.6-.49 1.2-.76 1.8Zm56.97-22.03a2.52 2.52 0 0 0-1.83-4.3c-1.89 0-3.21 2.35-2.16 3.94.09.14.2.27.32.38.97.94 2.7 1 3.66-.01Z"/><path d="M184.57 74.23a.76.76 0 0 0-1 .36c-2 4.36-4.26 8.8-7.72 12.1a11.9 11.9 0 0 0-.57-6.4c-.8-1.95-2.36-4.8-1.23-6.94.42-.8 1.46-1.56 2.41-1.25 1.4.46.4 2.44-.78 2.84-.4.13-.23.68.18.61 2-.33 3.27-2.65 2.8-4.6-.77-3.18-5.44-2.94-7.38-1.16-1.82 1.67-2.3 4.02-2.06 6.34-.45.87-.9 1.75-1.38 2.6-.85 1.54-1.4 2.61-2.84 3.71-1.67 1.28-4.52 1.72-5.27-.53-.58-1.75 2.09-11.5 4.44-18.99 2.47.5 4.9.83 7.47.18 1.3-.33.72-2.35-.55-1.96-2.21.68-4.36.7-6.5.46.5-1.56 1.01-3.12 1.56-4.66.38-1.06.72-2.15 1.28-3.13.5-.86 1.38-1.93 1-2.99l-.08-.13.54-.7a59.04 59.04 0 0 0 4.4-7.43l.26-.51 1.63-3.2a1.05 1.05 0 0 0-1.88-.94l-.4.8c-.86 1.7-1.72 3.4-2.64 5.06a47.23 47.23 0 0 1-2.44 4c-.5.72-1.13 1.64-1.9 2.35-.8.16-1.47.55-2 1.11-.3.05-.61.06-.94 0-1.06-.2-1.4-1.27-1.47-2.22-.11-1.47.2-2.99.55-4.42.4-1.64.9-3.24 1.45-4.84.4-1.15.83-2.3 1.22-3.47.06-.16.12-.33.16-.5.22-.9.21-2.27-.64-2.86-.95-.66-2.27.11-3.1.62a18 18 0 0 1-3.66 1.73c-.15.06-.3.1-.45.14 1.25-2.08 2.24-4.86 1.23-6.6-1.84-3.19-5.74.07-6.77 2.31-1.67 3.63-.88 6.5 1.62 7.37-1.19 2.36-2 3.88-3.06 5.6a14.01 14.01 0 0 1-5.06 4.97 9.42 9.42 0 0 1-3.37 1.11c-.76.1-1.58.14-2.32-.06-2.11-.54-2.64-3.23-2.47-5.09 4-1.02 10.82-5.79 9.33-10.89-.85-2.89-4.15-3.98-6.83-3.06-3 .95-5.5 3.39-7.19 6.33-.24.09-.45.26-.58.5-.99 1.98-1.98 3.95-3.05 5.87-1.2 2.16-1.98 3.67-3.99 5.2-2.34 1.8-6.35 2.42-7.4-.74-.81-2.45 2.94-16.13 6.24-26.67 3.47.7 6.88 1.16 10.5.25 1.82-.47 1-3.3-.78-2.76-3.1.96-6.13.98-9.13.64.7-2.2 1.42-4.37 2.19-6.54.52-1.5 1.01-3.03 1.8-4.4.7-1.21 1.93-2.71 1.39-4.2-.38-1.03-1.7-1.13-2.64-1.09-2.5.12-4.26 1.67-5.01 3.98-.73 2.22-1.42 4.45-2.11 6.68-.47 1.54-.95 3.07-1.41 4.61-1.18-.22-2.36-.44-3.55-.62-1.75-.28-7.88-1.01-7.6 2.22.01.09.08.18.17.17 1.55-.11 3-.74 4.58-.8a25.5 25.5 0 0 1 5.9.65 516.6 516.6 0 0 0-5.2 18.3c-.88 1.72-1.75 3.44-2.69 5.12-.78 1.42-1.54 2.9-2.52 4.22-1.05 1.42-3.96 4.27-5.35 1.51-.63-1.25.05-3.23.46-4.47.51-1.55 1.21-3.02 1.73-4.57.64-1.94 1.15-4.1.78-5.9a4.36 4.36 0 0 0-2.78-3.3c-3.86-1.64-6.97 2.65-8.55 5.54l-1 1.88c-1.02 2-3.24 6.8-3.41 7.15 0-.13.45-4.04 1.34-5.95.13-.27.27-.55.43-.83 1.9-3.45-3.4-6.42-5.33-3.04a21.38 21.38 0 0 0-2.28 5.64c-.37.72-.75 1.43-1.14 2.14a40.38 40.38 0 0 1-3.32 5.2c-.97 1.25-2.58 2.79-4.32 2.12-1.4-.55-1.3-2.56-1.16-3.77.4-3.6 1.57-7.25 3.27-10.45.68-1.29 2.22-3.15 1.66-4.7-.37-1.03-1.69-1.12-2.64-1.08-1.79.08-4.04 1.21-4.68 3a80.18 80.18 0 0 0-2.99 10.42c-.53 2.74-.06 5.27.9 6.84a6.19 6.19 0 0 0 6.04 2.7c2.6-.37 4.67-2.24 6.33-4.55.56-.77 1.07-1.6 1.56-2.42.12 2.34.76 5.01 3.12 5.7.48.13.89.14 1.25.06 1.57-.33 2.09-2.17 2.56-3.47a104.74 104.74 0 0 1 3.12-7.67c.51-1.1 1.05-2.21 1.63-3.3.57-1.05 1.16-2.2 1.98-3.09.16-.18.4-.48.68-.38.73.26.4 1.55.29 2.09-.47 2.1-1.09 4.18-1.6 6.27-.52 2.1-.85 4.33-.14 6.43l.04.13.09.2C89.75 54 88.23 62 86.8 68.65c-.51 2.4-1.13 4.75-1.66 7.16-.44 2-.86 4.03-1.6 5.96l-.16.42c-.01.04-.92.1-1.02.11a5.5 5.5 0 0 0-1.1.34 5 5 0 0 0-1.83 1.24c-.6.68-.82 1.68-.47 2.54.6 1.47 2.5 1.52 3.82 1.19a5.17 5.17 0 0 0 1.53-.66c.06-.04.23-.22.31-.18.89.45 1.76.91 2.67 1.3a12.9 12.9 0 0 0 8.92.5c2.41-.76 4.86-2.34 6.17-6.86.59-2.06-1.73.04-2.38.58-1.59 1.3-2.97 2.23-5.16 2.33-2.43.11-4.82-.59-7.08-1.4 1.42-2.52 2.3-5.63 2.94-8.29 1.87-7.72 2.6-15.6 6.64-22.58a6.32 6.32 0 0 0 2.98 1.62c2.46.55 4.78-.54 6.5-2.24a26.18 26.18 0 0 0 4.37-6.18c-.1 3.1.68 6.01 3.7 7.5 6.8 3.36 11.72-2.16 14.98-7.57a8.42 8.42 0 0 0 3.06 6.65c1.93 1.56 4.41 1.96 6.82 1.65a13.9 13.9 0 0 0 4.54-1.44c-3.77 3.38-4.5 8.85-5.88 13.73a177.6 177.6 0 0 0-1.9 7.16l-.53 2.17c-.75 1.6-1.29 2.7-1.98 3.93-.55.97-2.5 4.13-5.39 5.53a63.67 63.67 0 0 0 3.09-11.14c.5-2.83-3.53-3.99-4.43-1.2a9.3 9.3 0 0 0-.2.64 4.78 4.78 0 0 0-1.5-3.11c-1.33-1.1-3.24-.8-4.62.04-1.63 1-2.85 2.65-3.73 4.32-.32.6-.59 1.26-.81 1.96-.4.8-.83 1.6-1.27 2.39a27.94 27.94 0 0 1-2.36 3.7c-.7.89-1.83 1.98-3.07 1.5-1-.39-.92-1.82-.83-2.68a20.86 20.86 0 0 1 2.33-7.44c.48-.9 1.59-2.24 1.19-3.34-.27-.73-1.2-.8-1.88-.77-1.27.06-2.88.87-3.33 2.14a56.88 56.88 0 0 0-2.12 7.42 7.06 7.06 0 0 0 .63 4.87 4.42 4.42 0 0 0 4.3 1.93c1.86-.27 3.32-1.6 4.52-3.24.46-.64.87-1.32 1.26-2 .06 1.39.4 2.67 1.13 3.6 2.39 3.05 5.33.12 7.68-3.47-.33.97-.68 1.94-1.05 2.9L122.36 87c-3.52 1.19-6.9 2.4-8.53 6.23-.87 2.04-.52 4.56 1.72 5.45 1.72.68 3.9.3 5.38-.74 2.64-1.85 4.3-4.99 5.58-7.86l.03-.07c.47-1.08.93-2.16 1.36-3.25.33-.1.66-.2 1-.36 3.16-1.36 5.33-4.51 6.18-5.92-.07.81-.1 1.63-.06 2.46a2.02 2.02 0 0 0 2.67 1.86c1.45-.46 2.04-2.26 2.6-3.48 1.16-2.55 2.35-5.24 3.9-7.58.46-.64 1.11-1.69 1.94-1.84 1.28-.24.29 2.62.14 3.07-.64 1.92-1.64 3.74-1.9 5.77-.2 1.52-.08 3.29 1.1 4.4 2.93 2.76 6.92-.16 8.62-2.82.5-.77.97-1.56 1.43-2.36-.1 2.23.44 4.35 2.62 5.42 5.47 2.7 9.23-2.67 11.5-6.87.1.33.21.66.33.98.94 2.56 3.94 6.58 1.64 9.2-.25.27-.54.48-.84.7-.49.36-.68 1.03-.32 1.55.37.52 1.05.5 1.6.32 2.08-.67 3.8-2.33 5.27-3.88 3.33-3.52 5.57-7.76 7.6-12.12a.75.75 0 0 0-.37-.99l.01-.04Zm-47.19-32.26c.63-1.75 2.39-5.68 4.51-6.06 1.7-.3 1.05 2.18.57 3.14-.98 1.95-3.33 3.26-5.38 3.97.1-.39.19-.74.3-1.05Zm-16.43 48.57c-.8 1.78-1.47 4.07-3.2 5.23-2.06 1.38-2.75-1-2.03-2.63 1.17-2.67 3.56-3.5 5.98-4.4-.24.6-.5 1.21-.76 1.8h.01Zm3.55-12.4c-.4.67-3.7 5.58-4.6 4.22-.27-.42-.1-1.2-.02-1.67.83-4.83 4.06-9.55 5.33-7.28.24.44.48 1.45.59 2.4a47.7 47.7 0 0 1-1.3 2.33Zm31.59-48.43c.47-.17.76.5.66 1-.2.98-.68 2.09-1.16 2.94-.07.12-.87 1.64-.85 1.64-1.97-1.03-.47-4.91 1.35-5.58Zm.47 44.85-.13.47a94.78 94.78 0 0 1-1.92 3.7 26.84 26.84 0 0 1-2.2 3.5c-.74.94-1.89 2.24-3.24 1.71-1.6-.61-.86-3.05-.47-4.2.64-1.91 1.6-3.69 1.87-5.72.22-1.66-.08-3.24-1.75-4.08l-.25-.12c-2.74-1.15-4.98 1.9-6.09 3.95-.41.76-.8 1.54-1.19 2.33l.23-1 1.76-7.26c.56-2.32 1.14-4.65 1.83-6.94.93-3.1 2-5.78 3.7-8.54 1.77-2.88-.17-2.44-1.65-1.8a20.64 20.64 0 0 0 4.8-5.39 76.74 76.74 0 0 0 3.39-6.24v-.02c0-.02.03-.04.05-.07l.13-.25c.91-.16 1.86-.4 2.79-.75a33.64 33.64 0 0 0-2.05 6.42c-.7 3.33-.5 5.44.61 7.28 1.19 1.94 3.4 2.77 5.61 2.58.07 0 .14-.02.2-.03l-1.1 3.53-1.01 3.29c-.84-.16-1.68-.32-2.53-.45-1.24-.2-5.6-.72-5.4 1.59 0 .06.05.12.12.12 1.1-.08 2.13-.53 3.26-.57 1.4-.05 2.81.18 4.2.47-1.24 4.15-2.48 8.3-3.57 12.5v-.01Z"/></g><defs><clipPath id="a"><path fill="#fff" d="M0 0h185v99H0z"/></clipPath></defs></svg>