<svg xmlns="http://www.w3.org/2000/svg" width="83" height="53" fill="none"><path fill="#fff" d="M77.2.8H5.7A5.2 5.2 0 0 0 .5 6v41c0 3 2.3 5.3 5.2 5.3h71.5c2.8 0 5.2-2.4 5.2-5.3V6c0-3-2.4-5.3-5.2-5.3Z"/><path fill="#000" d="M26.8 45.7v-2.4c0-1-.6-1.5-1.5-1.5-.5 0-1 .1-1.4.7-.3-.5-.7-.7-1.3-.7-.4 0-.7.1-1 .5V42h-.9v3.8h.8v-2.1c0-.7.4-1 1-1 .5 0 .8.3.8 1v2h.8v-2c0-.7.4-1 1-1 .5 0 .8.3.8 1v2h.9ZM39 41.9h-1.4v-1.2H37V42h-.7v.7h.7v1.8c0 .8.4 1.4 1.3 1.4.4 0 .8-.2 1-.3l-.2-.7-.7.2c-.4 0-.6-.3-.6-.7v-1.7h1.4V42Zm7-.1c-.4 0-.8.2-1 .5V42h-.8v3.8h.8v-2.2c0-.6.3-1 .8-1l.5.1.3-.8H46Zm-10.6.4c-.4-.3-1-.4-1.6-.4-1 0-1.6.5-1.6 1.2 0 .6.5 1 1.4 1.1h.3c.5.1.7.3.7.5s-.3.4-.8.4c-.6 0-1-.2-1.3-.4l-.4.7c.4.3 1 .5 1.6.5 1.1 0 1.8-.6 1.8-1.3 0-.7-.6-1-1.4-1.1H34c-.4-.1-.7-.2-.7-.4 0-.3.3-.5.7-.5.5 0 1 .2 1.2.4l.4-.7Zm22-.4c-.4 0-.7.2-1 .5V42h-.7v3.8h.8v-2.2c0-.6.3-1 .8-1l.5.1.2-.8h-.5Zm-10.5 2c0 1.1.8 2 2 2 .5 0 1-.2 1.3-.5l-.4-.7c-.3.3-.6.4-1 .4-.6 0-1.1-.5-1.1-1.2s.5-1.2 1.1-1.3c.4 0 .7.2 1 .4l.4-.7a2 2 0 0 0-1.3-.4c-1.2 0-2 .8-2 2Zm7.6 0v-2h-.8v.5c-.3-.3-.7-.5-1.2-.5-1 0-1.9.8-1.9 2 0 1.1.9 2 2 2 .5 0 .9-.2 1.1-.6v.5h.9v-2Zm-3 0c0-.7.4-1.3 1.1-1.3.7 0 1.2.6 1.2 1.3 0 .6-.5 1.2-1.2 1.2s-1.1-.6-1.1-1.2Zm-10-2c-1 0-1.8.8-1.8 2s.7 2 1.9 2c.6 0 1.1-.2 1.5-.6l-.4-.6c-.3.3-.7.4-1 .4-.6 0-1-.2-1.2-.9h2.8v-.3c0-1.2-.7-2-1.7-2Zm0 .7c.6 0 1 .3 1 1h-2c.1-.6.5-1 1-1Zm20.7 1.3v-3.4h-.8v2c-.3-.4-.7-.6-1.2-.6-1 0-2 .8-2 2 0 1.1 1 2 2 2 .5 0 1-.2 1.2-.6v.5h.8v-2Zm-3 0c0-.7.4-1.3 1-1.3.8 0 1.2.6 1.2 1.3 0 .6-.4 1.2-1.1 1.2-.7 0-1.2-.6-1.2-1.2Zm-27.9 0v-2h-.8v.5c-.3-.3-.7-.5-1.2-.5-1 0-1.9.8-1.9 2 0 1.1.8 2 2 2 .5 0 .9-.2 1.1-.6v.5h.8v-2Zm-3 0c0-.7.4-1.3 1-1.3.8 0 1.2.6 1.2 1.3 0 .6-.4 1.2-1.1 1.2-.7 0-1.2-.6-1.2-1.2Z"/><path fill="#FF5F00" d="M47.7 13H35.2v22.4h12.5V12.9Z"/><path fill="#EB001B" d="M36 24.2c0-4.6 2.1-8.6 5.4-11.3a14.3 14.3 0 1 0 0 22.5A14.3 14.3 0 0 1 36 24.2Z"/><path fill="#F79E1B" d="M64.5 24.2a14.3 14.3 0 0 1-23 11.2 14.3 14.3 0 0 0 0-22.5 14.3 14.3 0 0 1 23 11.2Z"/></svg>