<svg xmlns="http://www.w3.org/2000/svg" width="72" height="69" fill="none"><path fill="#103A54" stroke="#E8CFA3" stroke-width="4" d="M54.5 11.6c.4-2.8-.4-4-1.1-4.5-.8-.5-2.5-.7-5.2.8l-11 6c-1 .7-2.4 1-3.6 1-1.3 0-2.6 0-3.7-.5l-9.5-3.9c-2.7-1-4.3-.7-5-.1-.7.5-1.4 1.8-.9 4.4l2.3 10.3c.2 1.4 0 2.8-.4 4a8.1 8.1 0 0 1-2.1 3.4L6.9 39c-2.8 2.5-2.9 4-2.6 4.6 0 .3.4.8 1.3 1.2.9.4 2.2.7 4 .7l11.2.4c1.4.1 2.8.6 4 1.3 1.1.7 2.3 1.8 3 3l4.8 9.4c1.6 3.1 3.2 3.8 4 3.8.9 0 2.4-1 3.7-4.2l3.6-9a8.1 8.1 0 0 1 2.5-3.1c1-.9 2.3-1.6 3.6-1.8L61 43c3-.6 4-1.7 4.3-2.5.2-.7 0-2.1-2.2-4L55.6 30c-1-.9-1.7-2-2.1-3a7.6 7.6 0 0 1-.5-3.7l1.5-11.8Zm0 0L53 23.4l1.5-11.8Z"/></svg>