
<svg xmlns="http://www.w3.org/2000/svg" width="789" height="334" fill="none"><g filter="url(#a)"><path fill="#103A54" d="M670.7 294H118.3c0-35.5-44-64.3-98.3-64.3v-8.4c9.6 0 17.4-5.1 17.4-11.4 0-6.3-7.8-11.3-17.4-11.3v-8.8c9.6 0 17.4-5 17.4-11.3 0-6.3-7.8-11.4-17.4-11.4v-8.7c9.6 0 17.4-5.1 17.4-11.4 0-6.3-7.8-11.4-17.4-11.4V127c9.6 0 17.4-5 17.4-11.4 0-6.2-7.8-11.3-17.4-11.3v-8.8c9.6 0 17.4-5 17.4-11.3 0-6.3-7.8-11.4-17.4-11.4v-8.4c54.3 0 98.3-28.8 98.3-64.3h552.4c0 35.5 44 64.3 98.3 64.3v8.4c-9.6 0-17.4 5.1-17.4 11.4 0 6.3 7.8 11.3 17.4 11.3v8.8c-9.6 0-17.4 5-17.4 11.3 0 6.3 7.8 11.4 17.4 11.4v8.7c-9.6 0-17.4 5.1-17.4 11.4 0 6.3 7.8 11.4 17.4 11.4v8.7c-9.6 0-17.4 5-17.4 11.4 0 6.2 7.8 11.3 17.4 11.3v8.8c-9.6 0-17.4 5-17.4 11.3 0 6.3 7.8 11.4 17.4 11.4v8.4c-54.3 0-98.3 28.8-98.3 64.3Z"/><path stroke="#E8CFA3" stroke-width="8" d="M666.9 290H122c-1.5-17.9-13.2-33.5-30.4-44.8A131 131 0 0 0 24 225.8v-.8c4-.5 7.6-1.8 10.5-3.7 3.8-2.5 6.9-6.4 6.9-11.4s-3-8.8-7-11.4a24.3 24.3 0 0 0-10.4-3.7v-1.2c4-.6 7.6-1.8 10.5-3.8 3.8-2.5 6.9-6.4 6.9-11.3 0-5-3-9-7-11.4-2.8-2-6.5-3.2-10.4-3.8v-1.2c4-.5 7.6-1.8 10.5-3.7 3.8-2.5 6.9-6.5 6.9-11.4 0-5-3-8.9-7-11.4a24.3 24.3 0 0 0-10.4-3.7v-1.3c4-.5 7.6-1.8 10.5-3.7 3.8-2.5 6.9-6.4 6.9-11.4 0-4.9-3-8.8-7-11.4a25.7 25.7 0 0 0-10.4-3.7v-1.2c4-.5 7.6-1.8 10.5-3.7 3.8-2.6 6.9-6.5 6.9-11.4 0-5-3-8.9-7-11.4-2.8-2-6.5-3.2-10.4-3.7v-.8a131 131 0 0 0 67.7-19.4c17.2-11.3 28.9-27 30.4-44.8H667c1.5 17.9 13.2 33.5 30.4 44.8A131 131 0 0 0 765 68.2v.8c-4 .5-7.6 1.8-10.5 3.7-3.8 2.5-6.9 6.4-6.9 11.4s3 8.8 7 11.4c2.8 1.9 6.5 3.2 10.4 3.7v1.2c-4 .6-7.6 1.8-10.5 3.8-3.8 2.5-6.9 6.4-6.9 11.3 0 5 3 8.9 7 11.4 2.8 2 6.5 3.2 10.4 3.7v1.3c-4 .5-7.6 1.8-10.5 3.7-3.8 2.5-6.9 6.5-6.9 11.4 0 5 3 8.9 7 11.4 2.8 1.9 6.5 3.2 10.4 3.7v1.3c-4 .5-7.6 1.8-10.5 3.7-3.8 2.5-6.9 6.4-6.9 11.4 0 4.9 3 8.8 7 11.3 2.8 2 6.5 3.2 10.4 3.8v1.2c-4 .5-7.6 1.8-10.5 3.7-3.8 2.6-6.9 6.5-6.9 11.4 0 5 3 8.9 7 11.4 2.8 2 6.5 3.2 10.4 3.7v.8a131 131 0 0 0-67.7 19.4c-17.2 11.3-28.9 27-30.4 44.8Z"/></g><defs><filter id="a" width="789" height="334" x="0" y="0" color-interpolation-filters="sRGB" filterUnits="userSpaceOnUse"><feFlood flood-opacity="0" result="BackgroundImageFix"/><feColorMatrix in="SourceAlpha" result="hardAlpha" values="0 0 0 0 0 0 0 0 0 0 0 0 0 0 0 0 0 0 127 0"/><feMorphology in="SourceAlpha" radius="10" result="effect1_dropShadow_607_470"/><feOffset dy="20"/><feGaussianBlur stdDeviation="15"/><feColorMatrix values="0 0 0 0 0.14902 0 0 0 0 0.223529 0 0 0 0 0.301961 0 0 0 1 0"/><feBlend in2="BackgroundImageFix" result="effect1_dropShadow_607_470"/><feBlend in="SourceGraphic" in2="effect1_dropShadow_607_470" result="shape"/></filter></defs></svg>