<svg xmlns="http://www.w3.org/2000/svg" width="33" height="32" fill="none"><circle cx="16.1" cy="16" r="16" fill="#fff"/><path fill="#000" fill-rule="evenodd" d="M11.2 6.5c-2.5 0-4.6 2-4.6 4.5v10c0 2.6 2 4.6 4.6 4.6h10c2.5 0 4.5-2 4.5-4.5V11c0-2.6-2-4.6-4.5-4.6h-10ZM5.6 11c0-3 2.5-5.5 5.6-5.5h10c3 0 5.5 2.5 5.5 5.5v10c0 3.1-2.4 5.6-5.5 5.6h-10c-3 0-5.6-2.5-5.6-5.5V11Zm11.2 1.5a3.5 3.5 0 1 0-1 7 3.5 3.5 0 0 0 1-7Zm-2.6-.5a4.5 4.5 0 1 1 4.1 8 4.5 4.5 0 0 1-4.1-8Zm7.5-2a.5.5 0 1 0 0 1 .5.5 0 0 0 0-1Z" clip-rule="evenodd"/></svg>