<svg xmlns="http://www.w3.org/2000/svg" width="83" height="53" fill="none"><path fill="#fff" d="M5.8.8h71.5C80.2.8 82.5 3 82.5 6v41c0 3-2.3 5.3-5.2 5.3H5.8A5.2 5.2 0 0 1 .6 47V6C.6 3 3 .7 5.8.7Z"/><path fill="#1A1F71" d="m39.7 18.3-3.5 16.5h-4.3l3.5-16.5h4.3Zm18 10.6 2.2-6.2L61 29h-3.5Zm4.7 5.9h4l-3.5-16.5h-3.7a2 2 0 0 0-1.8 1.2L51 34.8h4.5l.9-2.5h5.5l.5 2.5Zm-11.2-5.4c0-4.4-6-4.6-6-6.6 0-.5.7-1.2 1.9-1.3a8 8 0 0 1 4.2.7l.7-3.5c-1-.4-2.3-.7-4-.7-4.2 0-7.1 2.2-7.2 5.4 0 2.4 2.2 3.7 3.8 4.5 1.6.8 2.2 1.3 2.2 2 0 1.2-1.3 1.7-2.6 1.7-2.1 0-3.3-.6-4.3-1l-.8 3.6c1 .4 2.8.8 4.7.8 4.5 0 7.4-2.2 7.4-5.6M33.6 18.3l-6.9 16.5h-4.5l-3.4-13.2c-.2-.8-.4-1.1-1-1.4-1-.6-2.7-1.1-4.2-1.4v-.5H21c1 0 1.8.6 2 1.7l1.8 9.5L29 18.3h4.5Z"/></svg>